<?xml version="1.0" standalone="no"?><!DOCTYPE svg PUBLIC "-//W3C//DTD SVG 1.1//EN" "http://www.w3.org/Graphics/SVG/1.1/DTD/svg11.dtd"><svg t="1747362117523" class="icon" viewBox="0 0 1024 1024" version="1.1" xmlns="http://www.w3.org/2000/svg" p-id="4638" xmlns:xlink="http://www.w3.org/1999/xlink" width="200" height="200"><path d="M927.908782 512C927.908782 518.946422 922.023724 543.723471 897.871447 543.723471 873.766254 543.723471 834.736553 497.354995 780.782344 497.354995 710.161656 497.354995 701.734254 581.419978 701.734254 783.308677 701.734254 985.153129 731.724506 1024 786.149517 1024 813.12662 1024 1024 1000.815762 1024 554.696164 1024 163.882475 757.712919 0 512 0 266.334162 0 0 163.882475 0 554.696164 0 1000.815762 210.92046 1024 237.897563 1024 292.322575 1024 322.312827 985.153129 322.312827 783.308677 322.312827 581.419978 313.932506 497.354995 243.311816 497.354995 189.310529 497.354995 150.327908 543.723471 126.175632 543.723471 102.023356 543.723471 96.138299 518.946422 96.138299 512 96.138299 273.565158 256.023539 84.595921 511.058391 84.595921 766.046162 84.595921 927.908782 273.565158 927.908782 512Z" fill="#1296db" p-id="4639"></path></svg>